<?xml version="1.0" encoding="UTF-8" standalone="no"?>
<!-- Created with Inkscape (http://www.inkscape.org/) -->

<svg
   width="15.999998"
   height="15.999999"
   viewBox="0 0 4.2333327 4.2333331"
   version="1.1"
   id="svg1"
   inkscape:version="1.3 (0e150ed6c4, 2023-07-21)"
   sodipodi:docname="output.svg"
   xmlns:inkscape="http://www.inkscape.org/namespaces/inkscape"
   xmlns:sodipodi="http://sodipodi.sourceforge.net/DTD/sodipodi-0.dtd"
   xmlns="http://www.w3.org/2000/svg"
   xmlns:svg="http://www.w3.org/2000/svg">
  <sodipodi:namedview
     id="namedview1"
     pagecolor="#505050"
     bordercolor="#eeeeee"
     borderopacity="1"
     inkscape:showpageshadow="0"
     inkscape:pageopacity="0"
     inkscape:pagecheckerboard="0"
     inkscape:deskcolor="#505050"
     inkscape:document-units="px"
     showgrid="true"
     inkscape:zoom="22.627417"
     inkscape:cx="14.18633"
     inkscape:cy="19.025592"
     inkscape:window-width="1920"
     inkscape:window-height="1057"
     inkscape:window-x="-8"
     inkscape:window-y="-8"
     inkscape:window-maximized="1"
     inkscape:current-layer="layer1">
    <inkscape:grid
       id="grid1"
       units="px"
       originx="-2.1569028e-06"
       originy="-16.000004"
       spacingx="0.26458333"
       spacingy="0.26458334"
       empcolor="#0099e5"
       empopacity="0.30196078"
       color="#0099e5"
       opacity="0.14901961"
       empspacing="2"
       dotted="false"
       gridanglex="30"
       gridanglez="30"
       visible="true" />
    <inkscape:page
       x="0"
       y="0"
       width="4.2333326"
       height="4.2333331"
       id="page2"
       margin="0"
       bleed="0" />
  </sodipodi:namedview>
  <defs
     id="defs1" />
  <g
     inkscape:label="Layer 1"
     inkscape:groupmode="layer"
     id="layer1"
     transform="translate(3.4786051,-2.0668702)">
    <path
       d="m -1.3619496,-2.1664365 a 2.1166559,2.1166535 0 0 0 -0.3007553,0.021704 2.1166559,2.1166535 0 0 0 -0.2955877,0.064078 2.1166559,2.1166535 0 0 0 -0.2831854,0.1054192 2.1166559,2.1166535 0 0 0 -0.264582,0.144693 2.1166559,2.1166535 0 0 0 -0.2418445,0.1808665 2.1166559,2.1166535 0 0 0 -0.2139393,0.213939 2.1166559,2.1166535 0 0 0 -0.1808666,0.2418442 2.1166559,2.1166535 0 0 0 -0.1446933,0.2645817 2.1166559,2.1166535 0 0 0 -0.1054194,0.28318517 2.1166559,2.1166535 0 0 0 -0.064078,0.29558737 2.1166559,2.1166535 0 0 0 -0.021704,0.30075494 2.1166559,2.1166535 0 0 0 0.021704,0.30075494 2.1166559,2.1166535 0 0 0 0.064078,0.29558733 2.1166559,2.1166535 0 0 0 0.1054194,0.28318524 2.1166559,2.1166535 0 0 0 0.1446933,0.26458151 2.1166559,2.1166535 0 0 0 0.1808667,0.2418444 2.1166559,2.1166535 0 0 0 0.2139393,0.213939 2.1166559,2.1166535 0 0 0 0.2418445,0.1808669 2.1166559,2.1166535 0 0 0 0.264582,0.1446931 2.1166559,2.1166535 0 0 0 0.2831854,0.1054193 2.1166559,2.1166535 0 0 0 0.2955877,0.064078 2.1166559,2.1166535 0 0 0 0.3007553,0.021704 2.1166559,2.1166535 0 0 0 0.3007552,-0.021704 2.1166559,2.1166535 0 0 0 0.29558777,-0.064078 A 2.1166559,2.1166535 0 0 0 -0.48242097,1.875669 2.1166559,2.1166535 0 0 0 -0.21783912,1.7309759 2.1166559,2.1166535 0 0 0 0.02400547,1.550109 2.1166559,2.1166535 0 0 0 0.23794478,1.33617 2.1166559,2.1166535 0 0 0 0.41881187,1.0943256 2.1166559,2.1166535 0 0 0 0.56350515,0.82974409 2.1166559,2.1166535 0 0 0 0.66892461,0.54655885 a 2.1166559,2.1166535 0 0 0 0.0640777,-0.29558733 2.1166559,2.1166535 0 0 0 0.0217039,-0.30075494 2.1166559,2.1166535 0 0 0 -0.00206,-0.10335141 2.1166559,2.1166535 0 0 0 -0.008261,-0.10438576 2.1166559,2.1166535 0 0 0 -0.0124,-0.10335213 2.1166559,2.1166535 0 0 0 -0.0175879,-0.10231954 2.1166559,2.1166535 0 0 0 -0.022738,-0.10128523 2.1166559,2.1166535 0 0 0 -0.0279049,-0.10025162 2.1166559,2.1166535 0 0 0 -0.0330728,-0.0981846 2.1166559,2.1166535 0 0 0 -0.0372069,-0.097151 2.1166559,2.1166535 0 0 0 -0.0423748,-0.0950843 2.1166559,2.1166535 0 0 0 -0.0465086,-0.0919832 2.1166559,2.1166535 0 0 0 -0.0506427,-0.090949 2.1166559,2.1166535 0 0 0 -0.0558102,-0.087849 2.1166559,2.1166535 0 0 0 -0.0599444,-0.084749 2.1166559,2.1166535 0 0 0 -0.0640785,-0.081648 2.1166559,2.1166535 0 0 0 -0.0682125,-0.078548 2.1166559,2.1166535 0 0 0 -0.071313,-0.075448 2.1166559,2.1166535 0 0 0 -0.07544721,-0.071314 2.1166559,2.1166535 0 0 0 -0.07854781,-0.068213 2.1166559,2.1166535 0 0 0 -0.08164839,-0.064078 2.1166559,2.1166535 0 0 0 -0.084749,-0.059945 2.1166559,2.1166535 0 0 0 -0.0878493,-0.055811 2.1166559,2.1166535 0 0 0 -0.0909501,-0.050643 2.1166559,2.1166535 0 0 0 -0.0919835,-0.046509 2.1166559,2.1166535 0 0 0 -0.0950841,-0.042375 2.1166559,2.1166535 0 0 0 -0.0971513,-0.037207 2.1166559,2.1166535 0 0 0 -0.0981848,-0.033072 2.1166559,2.1166535 0 0 0 -0.10025164,-0.027904 2.1166559,2.1166535 0 0 0 -0.10128527,-0.022738 2.1166559,2.1166535 0 0 0 -0.10231889,-0.01757 2.1166559,2.1166535 0 0 0 -0.1033523,-0.012401 2.1166559,2.1166535 0 0 0 -0.1043859,-0.00827 2.1166559,2.1166535 0 0 0 -0.1033524,-0.00208 z m 0,0.5291633 a 1.5874919,1.5874902 0 0 1 0.088883,0.00208 1.5874919,1.5874902 0 0 1 0.088883,0.00827 1.5874919,1.5874902 0 0 1 0.08785,0.012401 1.5874919,1.5874902 0 0 1 0.08785,0.01757 1.5874919,1.5874902 0 0 1 0.0857837,0.021704 1.5874919,1.5874902 0 0 1 0.0847496,0.026872 1.5874919,1.5874902 0 0 1 0.0837156,0.032039 1.5874919,1.5874902 0 0 1 0.0806156,0.036173 1.5874919,1.5874902 0 0 1 0.0795816,0.04134 1.5874919,1.5874902 0 0 1 0.0764816,0.044442 1.5874919,1.5874902 0 0 1 0.0744137,0.049609 1.5874919,1.5874902 0 0 1 0.0713136,0.053743 1.5874919,1.5874902 0 0 1 0.0682117,0.057878 1.5874919,1.5874902 0 0 1 0.0640777,0.060978 1.5874919,1.5874902 0 0 1 0.0609777,0.064078 1.5874919,1.5874902 0 0 1 0.0578776,0.068213 1.5874919,1.5874902 0 0 1 0.05374373,0.0713126 1.5874919,1.5874902 0 0 1 0.04960974,0.0744136 1.5874919,1.5874902 0 0 1 0.04444177,0.0764805 1.5874919,1.5874902 0 0 1 0.04133979,0.0795814 1.5874919,1.5874902 0 0 1 0.03617382,0.0806144 1.5874919,1.5874902 0 0 1 0.0320398,0.0837156 1.5874919,1.5874902 0 0 1 0.0268718,0.0847485 1.5874919,1.5874902 0 0 1 0.0217039,0.0857825 1.5874919,1.5874902 0 0 1 0.01758,0.0878495 1.5874919,1.5874902 0 0 1 0.0124,0.0878495 1.5874919,1.5874902 0 0 1 0.008261,0.0888825 1.5874919,1.5874902 0 0 1 0.00206,0.08888342 A 1.5874919,1.5874902 0 0 1 0.20590183,0.19827174 1.5874919,1.5874902 0 0 1 0.14802408,0.44114948 1.5874919,1.5874902 0 0 1 0.05294056,0.67059145 1.5874919,1.5874902 0 0 1 -0.07728278,0.88349694 1.5874919,1.5874902 0 0 1 -0.23954597,1.0726318 1.5874919,1.5874902 0 0 1 -0.428681,1.2348948 1.5874919,1.5874902 0 0 1 -0.64158233,1.3651178 1.5874919,1.5874902 0 0 1 -0.87102457,1.4602024 1.5874919,1.5874902 0 0 1 -1.1139025,1.5180803 1.5874919,1.5874902 0 0 1 -1.3619483,1.5377167 1.5874919,1.5874902 0 0 1 -1.6099938,1.5180803 1.5874919,1.5874902 0 0 1 -1.8528732,1.4601969 1.5874919,1.5874902 0 0 1 -2.0823154,1.3651125 1.5874919,1.5874902 0 0 1 -2.2952212,1.2348887 1.5874919,1.5874902 0 0 1 -2.4843561,1.0726258 1.5874919,1.5874902 0 0 1 -2.6466193,0.8834911 1.5874919,1.5874902 0 0 1 -2.7768432,0.67058562 1.5874919,1.5874902 0 0 1 -2.871928,0.44114364 1.5874919,1.5874902 0 0 1 -2.929806,0.19826599 a 1.5874919,1.5874902 0 0 1 -0.019638,-0.24804546 1.5874919,1.5874902 0 0 1 0.019638,-0.24804536 1.5874919,1.5874902 0 0 1 0.057878,-0.24287769 1.5874919,1.5874902 0 0 1 0.095085,-0.22944197 1.5874919,1.5874902 0 0 1 0.1302239,-0.21290554 1.5874919,1.5874902 0 0 1 0.1622632,-0.18913457 1.5874919,1.5874902 0 0 1 0.1891349,-0.162263 1.5874919,1.5874902 0 0 1 0.2129058,-0.1302238 1.5874919,1.5874902 0 0 1 0.2294422,-0.095085 1.5874919,1.5874902 0 0 1 0.242878,-0.057878 1.5874919,1.5874902 0 0 1 0.2480456,-0.019637 z"
       style="fill:#ffffff;stroke-width:2.11664;stroke-linecap:round;stroke-linejoin:round;stroke-miterlimit:1.1"
       id="path3"
       inkscape:label="Always_Out" />
    <path
       d="M -1.3624557,2.0668695 -3.4786056,4.1835361 -1.361939,6.3002028 0.7547277,4.1835361 Z m 5.167e-4,0.79375 1.32291671,1.3229166 L -1.361939,5.5064528 -2.6848556,4.1835361 Z"
       style="fill:#ffffff;stroke-width:1.058;stroke-linecap:round;stroke-linejoin:round;stroke-miterlimit:1.1"
       id="path7"
       inkscape:label="Always_In" />
  </g>
</svg>
